<svg width="125" height="170" viewBox="0 0 125 170" fill="none" xmlns="http://www.w3.org/2000/svg">
<path d="M80.7424 170C68.5967 170 59.7316 167.078 54.147 161.234C48.9737 156.287 45.9716 149.496 45.7969 142.345C45.734 140.173 46.2381 138.021 47.2597 136.102C48.2125 134.444 49.5889 133.068 51.2483 132.115C53.177 131.155 55.3029 130.654 57.4582 130.654C59.6136 130.654 61.7395 131.155 63.6682 132.115C65.3247 133.065 66.6947 134.442 67.6344 136.102C68.6854 138.012 69.2084 140.167 69.1495 142.345C69.258 144.947 68.5108 147.512 67.0222 149.65C65.7812 151.395 64.0077 152.691 61.9672 153.344C63.9626 155.882 66.786 157.64 69.9455 158.312C73.4805 159.338 77.1415 159.865 80.8226 159.879C85.696 159.921 90.4691 158.496 94.5193 155.788C98.7209 152.824 101.854 148.586 103.455 143.703C105.484 137.891 106.474 131.768 106.38 125.614C106.544 119.198 105.46 112.811 103.189 106.807C101.481 102.006 98.2376 97.8985 93.9605 95.1198C89.985 92.6072 85.3701 91.2888 80.6655 91.3218C76.566 91.6687 72.6131 93.009 69.1495 95.2265L60.6102 99.5027V95.2265L98.9866 43.8072H45.7969V97.1656C45.6466 101.016 46.6665 104.822 48.7224 108.083C49.7171 109.504 51.0624 110.644 52.6279 111.393C54.1934 112.142 55.926 112.475 57.6581 112.359C60.8583 112.294 63.9531 111.205 66.4868 109.251C69.3589 107.149 71.8581 104.581 73.8807 101.654C74.0627 101.141 74.3985 100.696 74.8423 100.38C75.1986 100.072 75.6536 99.9027 76.1245 99.9018C77.0485 99.9861 77.9229 100.357 78.6247 100.964C79.5136 101.956 79.9974 103.245 79.9806 104.576C79.8779 105.471 79.718 106.358 79.5019 107.232C77.6124 111.8 74.4452 115.727 70.3793 118.544C66.603 121.096 62.1428 122.45 57.5833 122.427C46.0672 122.427 38.0893 120.16 33.6494 115.627C31.3673 113.121 29.6086 110.186 28.476 106.993C27.3435 103.8 26.86 100.414 27.0538 97.0322V43.8072H0V33.8932H27.1798V11.2885L20.957 5.06905V0H39.0143L45.7969 3.50671V33.8932L116.06 33.6798L123.055 40.6922L79.971 83.9327C82.5738 82.8872 85.315 82.225 88.1085 81.967C93.6375 82.2088 99.032 83.7468 103.856 86.4566C109.441 89.1083 114.149 93.3041 117.42 98.5465C120.351 102.984 122.425 107.93 123.537 113.129C124.451 117.23 124.941 121.414 125 125.615C125.028 133.632 123.208 141.549 119.681 148.75C116.336 155.724 110.706 161.347 103.723 164.688C96.5758 168.206 88.7104 170.024 80.7424 170Z" fill="#2C7DF7"/>
</svg>
