<svg width="444" height="395" viewBox="0 0 444 395" fill="none" xmlns="http://www.w3.org/2000/svg">
<g clip-path="url(#clip0_49_2)">
<path d="M40.1801 383.85C40.1801 383.85 15.9401 358.14 3.90013 363.33C-8.13987 368.52 9.59012 385.05 30.9001 388.15L40.1801 383.85Z" fill="#1D964E"/>
<path d="M35.8702 385.84C35.8702 385.84 14.2002 371.5 8.74023 370.49" stroke="#14723A" stroke-width="1.18" stroke-miterlimit="10"/>
<path d="M44.83 387.7H27.1599C27.1599 387.7 -18.1201 326.3 15.3999 322.52C65.5899 316.84 44.83 387.7 44.83 387.7Z" fill="#3DDB86"/>
<path d="M35.1901 387.7C35.1901 387.7 38.4601 360 20.6001 332.25" stroke="#14723A" stroke-width="1.41" stroke-miterlimit="10"/>
<path d="M44.8301 387.7C44.8301 387.7 52.2601 347.6 68.0001 347.21C83.7401 346.82 72.7001 373.68 51.1301 387.7H44.8301Z" fill="#1D964E"/>
<path d="M47.3101 387.7C47.3101 387.7 62.3701 353.27 70.3701 351.7" stroke="#14723A" stroke-width="1.41" stroke-miterlimit="10"/>
<path d="M123.1 369V388.69C123.1 392.12 101.75 394.9 75.4102 394.9C49.0702 394.9 27.7202 392.12 27.7202 388.69V369H123.1Z" fill="#393963"/>
<path d="M75.4102 375.18C101.749 375.18 123.1 372.4 123.1 368.97C123.1 365.541 101.749 362.76 75.4102 362.76C49.0718 362.76 27.7202 365.541 27.7202 368.97C27.7202 372.4 49.0718 375.18 75.4102 375.18Z" fill="#C5CCE9"/>
<path d="M75.4102 371.46C85.9975 371.46 94.5802 370.346 94.5802 368.97C94.5802 367.595 85.9975 366.48 75.4102 366.48C64.8229 366.48 56.2402 367.595 56.2402 368.97C56.2402 370.346 64.8229 371.46 75.4102 371.46Z" fill="#9BA7C9"/>
<path d="M418.17 387.7C418.17 387.7 427.65 359.5 438.68 359.23C449.71 358.96 441.99 377.84 426.82 387.7H418.17Z" fill="#1D964E"/>
<path d="M422.17 387.7C422.17 387.7 433.69 369.1 437.5 366.4" stroke="#14723A" stroke-width="0.99" stroke-miterlimit="10"/>
<path d="M402.12 387.7H419.79C419.79 387.7 465.07 326.3 431.55 322.52C381.36 316.84 402.12 387.7 402.12 387.7Z" fill="#3DDB86"/>
<path d="M411.76 387.7C411.76 387.7 408.49 359.97 426.35 332.25" stroke="#14723A" stroke-width="1.41" stroke-miterlimit="10"/>
<path d="M402.12 387.7C402.12 387.7 394.69 347.6 379.01 347.21C363.33 346.82 374.3 373.68 395.87 387.7H402.12Z" fill="#1D964E"/>
<path d="M399.64 387.7C399.64 387.7 384.59 353.27 376.59 351.7" stroke="#14723A" stroke-width="1.41" stroke-miterlimit="10"/>
<path d="M417.2 369V388.69C417.2 392.12 395.84 394.9 369.51 394.9C343.18 394.9 321.82 392.12 321.82 388.69V369H417.2Z" fill="#393963"/>
<path d="M369.51 375.18C395.849 375.18 417.2 372.4 417.2 368.97C417.2 365.541 395.849 362.76 369.51 362.76C343.172 362.76 321.82 365.541 321.82 368.97C321.82 372.4 343.172 375.18 369.51 375.18Z" fill="#C5CCE9"/>
<path d="M369.51 371.46C380.098 371.46 388.68 370.346 388.68 368.97C388.68 367.595 380.098 366.48 369.51 366.48C358.923 366.48 350.34 367.595 350.34 368.97C350.34 370.346 358.923 371.46 369.51 371.46Z" fill="#9BA7C9"/>
<path d="M273.13 342.66C273.13 342.66 291.13 289.03 312.13 288.51C333.13 287.99 318.42 323.9 289.58 342.66H273.13Z" fill="#3DDB86"/>
<path d="M280.73 342.66C280.73 342.66 302.63 307.29 309.89 302.16" stroke="#14723A" stroke-width="1.89" stroke-miterlimit="10"/>
<path d="M229.83 342.08L263.07 347C263.07 347 365.22 244 303.21 227.62C210.34 203 229.83 342.08 229.83 342.08Z" fill="#1D964E"/>
<path d="M248 344.75C248 344.75 249.5 291.68 290.77 244.45" stroke="#14723A" stroke-width="2.68" stroke-miterlimit="10"/>
<path d="M225.13 342.66H191.54C191.54 342.66 105.43 225.91 169.17 218.66C264.61 207.92 225.13 342.66 225.13 342.66Z" fill="#3DDB86"/>
<path d="M206.8 342.66C206.8 342.66 213.02 289.93 179.06 237.21" stroke="#14723A" stroke-width="2.68" stroke-miterlimit="10"/>
<path d="M179.75 342.66C179.75 342.66 165.62 266.4 135.75 265.66C105.88 264.92 126.81 315.98 167.82 342.66H179.75Z" fill="#1D964E"/>
<path d="M175 342.66C175 342.66 146.36 277.18 131.15 274.27" stroke="#14723A" stroke-width="2.68" stroke-miterlimit="10"/>
<path d="M308.82 315.85V351.52C308.82 357.72 270.15 362.76 222.46 362.76C174.77 362.76 136.1 357.76 136.1 351.52V315.85H308.82Z" fill="#393963"/>
<path d="M222.46 327.09C270.155 327.09 308.82 322.058 308.82 315.85C308.82 309.643 270.155 304.61 222.46 304.61C174.765 304.61 136.1 309.643 136.1 315.85C136.1 322.058 174.765 327.09 222.46 327.09Z" fill="#C5CCE9"/>
<path d="M222.46 320.37C241.63 320.37 257.17 318.346 257.17 315.85C257.17 313.354 241.63 311.33 222.46 311.33C203.29 311.33 187.75 313.354 187.75 315.85C187.75 318.346 203.29 320.37 222.46 320.37Z" fill="#9BA7C9"/>
<path d="M266.53 92.0503H186.86C178.968 92.0503 172.57 98.4481 172.57 106.34V282.76C172.57 290.652 178.968 297.05 186.86 297.05H266.53C274.422 297.05 280.82 290.652 280.82 282.76V106.34C280.82 98.4481 274.422 92.0503 266.53 92.0503Z" fill="#393963"/>
<path d="M265.89 97.6602H187.5C182.253 97.6602 178 101.913 178 107.16V281.95C178 287.197 182.253 291.45 187.5 291.45H265.89C271.137 291.45 275.39 287.197 275.39 281.95V107.16C275.39 101.913 271.137 97.6602 265.89 97.6602Z" fill="#C5CCE9"/>
<path opacity="0.4" d="M252.57 101.28H200.83C200.129 101.28 199.56 101.849 199.56 102.55V102.62C199.56 103.322 200.129 103.89 200.83 103.89H252.57C253.271 103.89 253.84 103.322 253.84 102.62V102.55C253.84 101.849 253.271 101.28 252.57 101.28Z" fill="#393963"/>
<path opacity="0.4" d="M252.57 282.53H200.83C200.129 282.53 199.56 283.099 199.56 283.8V283.87C199.56 284.572 200.129 285.14 200.83 285.14H252.57C253.271 285.14 253.84 284.572 253.84 283.87V283.8C253.84 283.099 253.271 282.53 252.57 282.53Z" fill="#393963"/>
<path d="M241.57 178.6H240.57V143.55H263.44V122.12H264.44V144.55H241.57V178.6Z" fill="#F5FAFF"/>
<path d="M263.93 123.89C263.578 123.89 263.233 123.785 262.94 123.589C262.647 123.393 262.419 123.115 262.285 122.789C262.15 122.463 262.116 122.105 262.185 121.759C262.255 121.414 262.425 121.096 262.675 120.848C262.925 120.599 263.243 120.431 263.589 120.363C263.935 120.296 264.293 120.332 264.619 120.468C264.944 120.605 265.221 120.834 265.415 121.128C265.61 121.422 265.712 121.768 265.71 122.12C265.71 122.353 265.664 122.584 265.575 122.8C265.485 123.015 265.354 123.211 265.188 123.375C265.023 123.54 264.827 123.67 264.611 123.758C264.395 123.847 264.164 123.891 263.93 123.89Z" fill="#F5FAFF"/>
<path d="M223.95 140.82H222.95V178.6H223.95V140.82Z" fill="#F5FAFF"/>
<path d="M223.45 142.6C223.098 142.602 222.753 142.499 222.459 142.305C222.164 142.111 221.935 141.833 221.799 141.508C221.662 141.183 221.626 140.825 221.693 140.479C221.761 140.133 221.929 139.815 222.178 139.565C222.427 139.315 222.744 139.144 223.089 139.075C223.435 139.005 223.793 139.04 224.119 139.175C224.445 139.309 224.723 139.537 224.919 139.83C225.116 140.123 225.22 140.468 225.22 140.82C225.22 141.29 225.034 141.742 224.702 142.075C224.371 142.409 223.921 142.597 223.45 142.6Z" fill="#F5FAFF"/>
<path d="M204.9 178.6H203.9V141.32H185.99V122.12H186.99V140.32H204.9V178.6Z" fill="#F5FAFF"/>
<path d="M186.49 123.89C186.137 123.89 185.793 123.785 185.5 123.589C185.207 123.393 184.979 123.115 184.844 122.789C184.71 122.463 184.675 122.105 184.745 121.759C184.814 121.414 184.985 121.096 185.235 120.848C185.485 120.599 185.803 120.431 186.149 120.363C186.495 120.296 186.853 120.332 187.178 120.468C187.503 120.605 187.78 120.834 187.975 121.128C188.169 121.422 188.272 121.768 188.27 122.12C188.27 122.353 188.224 122.584 188.134 122.8C188.045 123.015 187.913 123.211 187.748 123.375C187.583 123.54 187.386 123.67 187.17 123.758C186.954 123.847 186.723 123.891 186.49 123.89Z" fill="#F5FAFF"/>
<path d="M233.34 177.06H232.34V135.73H247.99V113.56H248.99V136.73H233.34V177.06Z" fill="#F5FAFF"/>
<path d="M213.15 178.6H212.15V129.06H193.82V112.89H194.82V128.06H213.15V178.6Z" fill="#F5FAFF"/>
<path d="M194.32 114.67C195.303 114.67 196.1 113.873 196.1 112.89C196.1 111.907 195.303 111.11 194.32 111.11C193.337 111.11 192.54 111.907 192.54 112.89C192.54 113.873 193.337 114.67 194.32 114.67Z" fill="#F5FAFF"/>
<path d="M248.49 115.34C248.138 115.342 247.793 115.24 247.499 115.045C247.205 114.851 246.975 114.573 246.839 114.248C246.702 113.923 246.666 113.565 246.733 113.219C246.801 112.873 246.969 112.555 247.218 112.305C247.467 112.055 247.784 111.885 248.129 111.815C248.475 111.746 248.833 111.78 249.159 111.915C249.485 112.049 249.763 112.277 249.96 112.57C250.156 112.863 250.26 113.208 250.26 113.56C250.26 114.031 250.074 114.482 249.742 114.815C249.411 115.149 248.961 115.338 248.49 115.34Z" fill="#F5FAFF"/>
<path d="M186.99 253.47H185.99V231.04H208.85V196.99H209.85V232.04H186.99V253.47Z" fill="#F5FAFF"/>
<path d="M186.49 251.7C186.843 251.698 187.189 251.801 187.483 251.996C187.777 252.191 188.007 252.469 188.143 252.794C188.279 253.12 188.315 253.479 188.247 253.825C188.178 254.171 188.008 254.489 187.759 254.739C187.509 254.988 187.191 255.158 186.845 255.226C186.499 255.295 186.14 255.259 185.814 255.123C185.489 254.987 185.211 254.757 185.016 254.463C184.821 254.169 184.718 253.823 184.72 253.47C184.723 253.002 184.91 252.553 185.242 252.222C185.573 251.89 186.022 251.703 186.49 251.7Z" fill="#F5FAFF"/>
<path d="M227.47 200.81H226.47V259.15H227.47V200.81Z" fill="#F5FAFF"/>
<path d="M227 257.37C227.352 257.37 227.696 257.475 227.989 257.67C228.282 257.866 228.51 258.144 228.645 258.469C228.779 258.794 228.815 259.152 228.746 259.497C228.677 259.843 228.508 260.16 228.259 260.409C228.01 260.658 227.693 260.827 227.347 260.896C227.002 260.965 226.644 260.929 226.319 260.795C225.994 260.66 225.716 260.432 225.52 260.139C225.325 259.846 225.22 259.502 225.22 259.15C225.22 258.678 225.408 258.225 225.742 257.891C226.075 257.558 226.528 257.37 227 257.37Z" fill="#F5FAFF"/>
<path d="M264.43 253.47H263.43V235.27H245.52V196.99H246.52V234.27H264.43V253.47Z" fill="#F5FAFF"/>
<path d="M263.93 251.7C264.283 251.698 264.629 251.801 264.923 251.996C265.217 252.191 265.447 252.469 265.583 252.794C265.719 253.12 265.755 253.479 265.686 253.825C265.618 254.171 265.448 254.489 265.199 254.739C264.949 254.988 264.631 255.158 264.285 255.226C263.939 255.295 263.58 255.259 263.254 255.123C262.929 254.987 262.651 254.757 262.456 254.463C262.261 254.169 262.158 253.823 262.16 253.47C262.163 253.002 262.35 252.553 262.682 252.222C263.013 251.89 263.462 251.703 263.93 251.7Z" fill="#F5FAFF"/>
<path d="M202.44 262.03H201.44V238.87H217.09V198.53H218.09V239.87H202.44V262.03Z" fill="#F5FAFF"/>
<path d="M256.6 262.7H255.6V247.53H237.27V196.99H238.27V246.53H256.6V262.7Z" fill="#F5FAFF"/>
<path d="M256.1 260.92C256.453 260.918 256.798 261.021 257.092 261.216C257.386 261.41 257.615 261.687 257.752 262.012C257.888 262.337 257.925 262.696 257.857 263.042C257.79 263.387 257.621 263.706 257.372 263.956C257.124 264.205 256.807 264.376 256.461 264.445C256.115 264.515 255.757 264.48 255.431 264.346C255.105 264.211 254.827 263.983 254.631 263.69C254.435 263.397 254.33 263.053 254.33 262.7C254.33 262.23 254.516 261.779 254.848 261.445C255.18 261.112 255.63 260.923 256.1 260.92Z" fill="#F5FAFF"/>
<path d="M201.94 260.26C202.293 260.26 202.637 260.365 202.93 260.561C203.223 260.757 203.451 261.036 203.586 261.361C203.72 261.687 203.755 262.046 203.685 262.391C203.616 262.737 203.445 263.054 203.195 263.302C202.945 263.551 202.627 263.72 202.281 263.787C201.935 263.855 201.577 263.818 201.252 263.682C200.927 263.546 200.65 263.316 200.455 263.022C200.261 262.728 200.158 262.383 200.16 262.03C200.16 261.797 200.206 261.566 200.296 261.351C200.385 261.135 200.517 260.94 200.682 260.775C200.848 260.611 201.044 260.48 201.26 260.392C201.476 260.304 201.707 260.259 201.94 260.26Z" fill="#F5FAFF"/>
<path d="M264.43 177.56H246.94V176.56H263.43V159.71H264.43V177.56Z" fill="#F5FAFF"/>
<path d="M263.93 157.94C264.283 157.938 264.629 158.041 264.923 158.236C265.217 158.431 265.447 158.709 265.583 159.035C265.719 159.36 265.755 159.719 265.686 160.065C265.618 160.411 265.448 160.73 265.199 160.979C264.949 161.229 264.631 161.398 264.285 161.467C263.939 161.535 263.58 161.499 263.254 161.363C262.929 161.227 262.651 160.997 262.456 160.703C262.261 160.409 262.158 160.063 262.16 159.71C262.163 159.242 262.35 158.793 262.682 158.462C263.013 158.13 263.462 157.943 263.93 157.94Z" fill="#F5FAFF"/>
<path d="M266.82 184.57H246.94V185.57H266.82V184.57Z" fill="#F5FAFF"/>
<path d="M266.82 186.85C267.803 186.85 268.6 186.053 268.6 185.07C268.6 184.087 267.803 183.29 266.82 183.29C265.837 183.29 265.04 184.087 265.04 185.07C265.04 186.053 265.837 186.85 266.82 186.85Z" fill="#F5FAFF"/>
<path d="M264.43 218.09H263.43V194.44H246.94V193.44H264.43V218.09Z" fill="#F5FAFF"/>
<path d="M263.93 215.93C264.283 215.928 264.629 216.031 264.923 216.226C265.217 216.421 265.447 216.699 265.583 217.024C265.719 217.35 265.755 217.709 265.686 218.055C265.618 218.401 265.448 218.719 265.199 218.969C264.949 219.218 264.631 219.388 264.285 219.456C263.939 219.525 263.58 219.489 263.254 219.353C262.929 219.217 262.651 218.987 262.456 218.693C262.261 218.399 262.158 218.053 262.16 217.7C262.163 217.232 262.35 216.783 262.682 216.452C263.013 216.12 263.462 215.933 263.93 215.93Z" fill="#F5FAFF"/>
<path d="M202.61 177.56H185.11V159.71H186.11V176.56H202.61V177.56Z" fill="#F5FAFF"/>
<path d="M185.61 157.94C185.257 157.938 184.912 158.041 184.618 158.236C184.323 158.431 184.094 158.709 183.958 159.035C183.822 159.36 183.786 159.719 183.854 160.065C183.922 160.411 184.092 160.73 184.342 160.979C184.591 161.229 184.909 161.398 185.256 161.467C185.602 161.535 185.96 161.499 186.286 161.363C186.612 161.227 186.89 160.997 187.084 160.703C187.279 160.409 187.382 160.063 187.38 159.71C187.378 159.242 187.19 158.793 186.859 158.462C186.528 158.13 186.079 157.943 185.61 157.94Z" fill="#F5FAFF"/>
<path d="M202.6 184.57H182.72V185.57H202.6V184.57Z" fill="#F5FAFF"/>
<path d="M182.72 186.85C183.703 186.85 184.5 186.053 184.5 185.07C184.5 184.087 183.703 183.29 182.72 183.29C181.737 183.29 180.94 184.087 180.94 185.07C180.94 186.053 181.737 186.85 182.72 186.85Z" fill="#F5FAFF"/>
<path d="M186.11 218.09H185.11V193.44H202.61V194.44H186.11V218.09Z" fill="#F5FAFF"/>
<path d="M185.61 215.93C185.258 215.93 184.913 216.035 184.62 216.231C184.327 216.427 184.099 216.706 183.965 217.031C183.83 217.357 183.796 217.716 183.865 218.061C183.935 218.407 184.105 218.724 184.355 218.972C184.605 219.221 184.923 219.39 185.269 219.457C185.615 219.525 185.973 219.488 186.298 219.352C186.623 219.216 186.901 218.986 187.095 218.692C187.289 218.398 187.392 218.053 187.39 217.7C187.39 217.467 187.344 217.236 187.254 217.021C187.165 216.805 187.034 216.61 186.868 216.445C186.703 216.281 186.506 216.15 186.29 216.062C186.075 215.974 185.843 215.929 185.61 215.93Z" fill="#F5FAFF"/>
<path d="M225.22 226.7C192.39 207.99 193.64 165.19 193.64 165.19L225.22 150.64L256.81 165.19C256.81 165.19 258.05 208 225.22 226.7Z" fill="#1674C1"/>
<path d="M225.22 220.33C197.88 204.76 198.92 169.12 198.92 169.12L225.22 157L251.52 169.11C251.52 169.11 252.56 204.76 225.22 220.33Z" fill="#4396E8"/>
<path d="M232.84 178.9C232.842 180.188 232.517 181.455 231.894 182.581C231.271 183.708 230.372 184.658 229.28 185.34V194.68C229.228 195.752 228.765 196.763 227.988 197.503C227.21 198.243 226.178 198.656 225.105 198.656C224.032 198.656 223 198.243 222.223 197.503C221.445 196.763 220.983 195.752 220.93 194.68V185.2C219.845 184.461 218.969 183.453 218.387 182.276C217.806 181.098 217.539 179.79 217.612 178.478C217.685 177.167 218.096 175.897 218.805 174.791C219.514 173.685 220.496 172.781 221.657 172.167C222.818 171.553 224.118 171.249 225.431 171.286C226.744 171.322 228.025 171.697 229.151 172.375C230.276 173.052 231.207 174.009 231.853 175.152C232.5 176.296 232.84 177.587 232.84 178.9Z" fill="#17285B"/>
<path d="M92.7699 59.9204H50.1099C46.9785 59.9204 44.4399 62.459 44.4399 65.5904V95.2504C44.4399 98.3819 46.9785 100.92 50.1099 100.92H92.7699C95.9014 100.92 98.4399 98.3819 98.4399 95.2504V65.5904C98.4399 62.459 95.9014 59.9204 92.7699 59.9204Z" fill="#F5FAFF" stroke="#C5CCE9" stroke-width="2" stroke-miterlimit="10"/>
<path d="M47.9399 94.9203C47.9399 94.9203 51.1099 96.1303 52.3599 92.0103C53.6099 87.8903 56.8599 91.5103 59.2299 85.2603C61.5999 79.0103 64.9999 79.0003 66.6099 81.6303C68.2199 84.2603 70.7299 87.3403 73.2299 80.4203C75.7299 73.5003 76.7299 70.1303 79.4799 69.7603C82.2299 69.3903 83.9799 78.2603 87.4799 77.6303C90.9799 77.0003 90.1099 70.6303 94.7299 69.7503" stroke="#C5CCE9" stroke-miterlimit="10"/>
<path d="M216.47 30.8602C216.47 39.0448 213.219 46.8942 207.431 52.6815C201.644 58.4689 193.795 61.7202 185.61 61.7202C177.425 61.7202 169.576 58.4689 163.789 52.6815C158.001 46.8942 154.75 39.0448 154.75 30.8602H165.29C165.29 34.8816 166.483 38.8125 168.717 42.156C170.951 45.4995 174.127 48.1052 177.842 49.6437C181.558 51.1821 185.646 51.5841 189.59 50.7989C193.534 50.0136 197.156 48.0764 199.999 45.2322C202.842 42.388 204.777 38.7646 205.561 34.8203C206.344 30.876 205.94 26.788 204.4 23.0733C202.859 19.3587 200.252 16.1843 196.907 13.9516C193.563 11.7189 189.631 10.5283 185.61 10.5302H185.46C185.61 7.00023 185.77 3.38023 185.94 -0.00976562C194.068 0.0797629 201.833 3.37161 207.549 9.15118C213.265 14.9308 216.47 22.7316 216.47 30.8602Z" fill="#C5CCE9"/>
<path d="M185.94 0C185.77 3.39 185.61 7 185.46 10.54C180.095 10.5744 174.962 12.731 171.183 16.5386C167.403 20.3462 165.285 25.4951 165.29 30.86H154.75C154.75 26.8074 155.548 22.7945 157.099 19.0504C158.65 15.3063 160.923 11.9043 163.789 9.03868C166.654 6.17307 170.056 3.89994 173.8 2.34908C177.544 0.798218 181.557 0 185.61 0L185.94 0Z" fill="#F5FAFF"/>
<path d="M307.19 53C307.207 53.059 307.231 53.116 307.26 53.17H307L307.19 53Z" fill="#C5CCE9"/>
<path d="M307 45.2803H307.25C307.221 45.3343 307.197 45.3913 307.18 45.4503L307 45.2803Z" fill="#C5CCE9"/>
<path d="M312.61 39.7002L312.78 39.8602L312.61 39.9302V39.7002Z" fill="#C5CCE9"/>
<path d="M312.61 58.54C312.665 58.566 312.722 58.5861 312.78 58.6L312.61 58.77V58.54Z" fill="#C5CCE9"/>
<path d="M320.34 39.8604L320.51 39.6904V39.9304L320.34 39.8604Z" fill="#C5CCE9"/>
<path d="M320.34 58.6C320.399 58.5861 320.456 58.566 320.51 58.54V58.78L320.34 58.6Z" fill="#C5CCE9"/>
<path d="M325.93 53L326.1 53.17H325.86C325.89 53.116 325.913 53.059 325.93 53Z" fill="#C5CCE9"/>
<path d="M325.93 45.4503C325.913 45.3913 325.89 45.3343 325.86 45.2803H326.1L325.93 45.4503Z" fill="#C5CCE9"/>
<path d="M307.19 53C307.207 53.059 307.231 53.116 307.26 53.17H307L307.19 53Z" fill="#C5CCE9"/>
<path d="M307 45.2803H307.25C307.221 45.3343 307.197 45.3913 307.18 45.4503L307 45.2803Z" fill="#C5CCE9"/>
<path d="M325.93 53L326.1 53.17H325.86C325.89 53.116 325.913 53.059 325.93 53Z" fill="#C5CCE9"/>
<path d="M325.93 45.4503C325.913 45.3913 325.89 45.3343 325.86 45.2803H326.1L325.93 45.4503Z" fill="#C5CCE9"/>
<path d="M341.6 53.1804V45.2804H335.26C334.776 42.9729 333.868 40.7754 332.58 38.8004L337.06 34.3204L331.47 28.7304L327 33.2104C325.025 31.9228 322.828 31.014 320.52 30.5304V24.1904H312.62V30.5304C310.31 31.0166 308.11 31.9251 306.13 33.2104L301.65 28.7304L296.07 34.3204L300.55 38.8004C299.26 40.7754 298.348 42.9726 297.86 45.2804H291.52V53.1804H297.86C298.348 55.4883 299.26 57.6855 300.55 59.6604L296.07 64.1404L301.65 69.7404L306.13 65.2604C308.112 66.5415 310.312 67.4497 312.62 67.9404V74.2804H320.52V67.9404C322.826 67.4516 325.022 66.5432 327 65.2604L331.48 69.7404L337.07 64.1404L332.59 59.6604C333.881 57.6872 334.79 55.4891 335.27 53.1804H341.6ZM326.1 53.1804H325.86C324.837 55.5916 322.919 57.5126 320.51 58.5404V58.7804L320.34 58.6004C317.917 59.5897 315.203 59.5897 312.78 58.6004L312.61 58.7704V58.5404C310.197 57.5188 308.277 55.5958 307.26 53.1804H307L307.18 53.0104C306.191 50.5875 306.191 47.8733 307.18 45.4504L307 45.2804H307.25C308.264 42.8652 310.185 40.9443 312.6 39.9304V39.7004L312.77 39.8604C315.193 38.8712 317.907 38.8712 320.33 39.8604L320.5 39.6904V39.9304C322.909 40.9541 324.826 42.8719 325.85 45.2804H326.09L325.92 45.4504C326.894 47.8764 326.894 50.5844 325.92 53.0104L326.1 53.1804Z" fill="#C5CCE9"/>
<path d="M307 45.2803H307.25C307.221 45.3343 307.197 45.3913 307.18 45.4503L307 45.2803Z" fill="#C5CCE9"/>
<path d="M312.61 39.7002L312.78 39.8602L312.61 39.9302V39.7002Z" fill="#C5CCE9"/>
<path d="M320.34 58.6C320.399 58.5861 320.456 58.566 320.51 58.54V58.78L320.34 58.6Z" fill="#C5CCE9"/>
<path d="M326.1 53.1803H325.86C325.89 53.1262 325.913 53.0692 325.93 53.0103L326.1 53.1803Z" fill="#C5CCE9"/>
<path d="M312.61 39.7002L312.78 39.8602L312.61 39.9302V39.7002Z" fill="#C5CCE9"/>
<path d="M312.61 58.54C312.665 58.566 312.722 58.5861 312.78 58.6L312.61 58.77V58.54Z" fill="#C5CCE9"/>
<path d="M320.51 39.6904V39.9304L320.34 39.8604L320.51 39.6904Z" fill="#C5CCE9"/>
<path d="M320.34 58.6C320.399 58.5861 320.456 58.566 320.51 58.54V58.78L320.34 58.6Z" fill="#C5CCE9"/>
<path d="M307.19 53C307.207 53.059 307.231 53.116 307.26 53.17H307L307.19 53Z" fill="#C5CCE9"/>
<path d="M312.61 58.54C312.665 58.566 312.722 58.5861 312.78 58.6L312.61 58.77V58.54Z" fill="#C5CCE9"/>
<path d="M320.34 39.8604L320.51 39.6904V39.9304L320.34 39.8604Z" fill="#C5CCE9"/>
<path d="M326.1 45.2803L325.93 45.4503C325.913 45.3913 325.89 45.3343 325.86 45.2803H326.1Z" fill="#C5CCE9"/>
<path d="M326.66 49.2301C326.667 50.5258 326.419 51.8102 325.93 53.0101C325.913 53.0691 325.889 53.1261 325.86 53.1801C324.837 55.5913 322.919 57.5123 320.51 58.5401C320.456 58.5661 320.399 58.5862 320.34 58.6001C317.917 59.5894 315.203 59.5894 312.78 58.6001C312.722 58.5862 312.665 58.5661 312.61 58.5401C310.197 57.5185 308.277 55.5954 307.26 53.1801C307.231 53.1261 307.207 53.0691 307.19 53.0101C306.201 50.5872 306.201 47.873 307.19 45.4501C307.207 45.3911 307.231 45.3341 307.26 45.2801C308.274 42.8649 310.195 40.9439 312.61 39.9301L312.78 39.8601C315.203 38.8708 317.917 38.8708 320.34 39.8601L320.51 39.9301C322.919 40.9538 324.837 42.8715 325.86 45.2801C325.889 45.3341 325.913 45.3911 325.93 45.4501C326.419 46.6502 326.667 47.9345 326.66 49.2301Z" fill="#F5FAFF"/>
<path d="M350.62 30.7603C350.618 30.7936 350.618 30.8269 350.62 30.8603H350.48L350.62 30.7603Z" fill="#C5CCE9"/>
<path d="M350.52 26.3101H350.66V26.4101L350.52 26.3101Z" fill="#C5CCE9"/>
<path d="M353.74 23.1001L353.84 23.1901H353.74V23.1001Z" fill="#C5CCE9"/>
<path d="M353.74 33.9404H353.84L353.74 34.0404V33.9404Z" fill="#C5CCE9"/>
<path d="M358.2 23.1903L358.29 23.0903V23.2303L358.2 23.1903Z" fill="#C5CCE9"/>
<path d="M358.19 34H358.29V34.14L358.19 34Z" fill="#C5CCE9"/>
<path d="M361.41 30.7603L361.51 30.8603H361.37C361.389 30.8296 361.403 30.7957 361.41 30.7603Z" fill="#C5CCE9"/>
<path d="M361.41 26.4101C361.414 26.3768 361.414 26.3433 361.41 26.3101H361.55L361.41 26.4101Z" fill="#C5CCE9"/>
<path d="M350.62 30.7603C350.618 30.7936 350.618 30.8269 350.62 30.8603H350.48L350.62 30.7603Z" fill="#C5CCE9"/>
<path d="M350.52 26.3101H350.66V26.4101L350.52 26.3101Z" fill="#C5CCE9"/>
<path d="M361.41 30.7603L361.51 30.8603H361.37C361.389 30.8296 361.403 30.7957 361.41 30.7603Z" fill="#C5CCE9"/>
<path d="M361.41 26.4101C361.414 26.3768 361.414 26.3433 361.41 26.3101H361.55L361.41 26.4101Z" fill="#C5CCE9"/>
<path d="M370.43 30.8604V26.3104H366.78C366.504 24.9819 365.982 23.7167 365.24 22.5804L367.82 20.0004L364.6 16.7904L362 19.3604C360.859 18.627 359.596 18.1054 358.27 17.8204V14.1704H353.72V17.8204C352.398 18.1065 351.138 18.6281 350 19.3604L347.42 16.7904L344.21 20.0004L346.79 22.5804C346.053 23.7189 345.531 24.9832 345.25 26.3104H341.6V30.8604H345.25C345.526 32.189 346.048 33.4541 346.79 34.5904L344.21 37.1704L347.43 40.3904L350 37.8104C351.136 38.5521 352.402 39.0744 353.73 39.3504V43.0004H358.28V39.3504C359.605 39.0732 360.867 38.5509 362 37.8104L364.58 40.3904L367.8 37.1704L365.22 34.5904C365.962 33.4541 366.484 32.189 366.76 30.8604H370.43ZM361.51 30.8604H361.37C360.785 32.25 359.68 33.3556 358.29 33.9404V34.0804L358.19 33.9804C356.794 34.5406 355.236 34.5406 353.84 33.9804L353.74 34.0804V33.9404C352.352 33.3529 351.248 32.2482 350.66 30.8604H350.52L350.62 30.7604C350.06 29.3645 350.06 27.8063 350.62 26.4104L350.52 26.3104H350.66C351.254 24.9267 352.356 23.8241 353.74 23.2304V23.1004L353.84 23.1904C355.24 22.6307 356.801 22.6307 358.2 23.1904L358.29 23.0904V23.2304C359.676 23.8215 360.779 24.925 361.37 26.3104H361.51L361.41 26.4104C361.97 27.8063 361.97 29.3645 361.41 30.7604L361.51 30.8604Z" fill="#C5CCE9"/>
<path d="M350.52 26.3101H350.66V26.4101L350.52 26.3101Z" fill="#C5CCE9"/>
<path d="M353.74 23.1001L353.84 23.1901H353.74V23.1001Z" fill="#C5CCE9"/>
<path d="M358.19 34H358.29V34.14L358.19 34Z" fill="#C5CCE9"/>
<path d="M361.51 30.8603H361.37C361.376 30.8272 361.376 30.7934 361.37 30.7603L361.51 30.8603Z" fill="#C5CCE9"/>
<path d="M353.74 23.1001L353.84 23.1901H353.74V23.1001Z" fill="#C5CCE9"/>
<path d="M353.74 33.9404H353.84L353.74 34.0404V33.9404Z" fill="#C5CCE9"/>
<path d="M358.29 23.0903V23.2303H358.2L358.29 23.0903Z" fill="#C5CCE9"/>
<path d="M358.19 34H358.29V34.14L358.19 34Z" fill="#C5CCE9"/>
<path d="M350.62 30.7603C350.618 30.7936 350.618 30.8269 350.62 30.8603H350.48L350.62 30.7603Z" fill="#C5CCE9"/>
<path d="M353.74 33.9404H353.84L353.74 34.0404V33.9404Z" fill="#C5CCE9"/>
<path d="M358.2 23.1903L358.29 23.0903V23.2303L358.2 23.1903Z" fill="#C5CCE9"/>
<path d="M361.51 26.3101L361.41 26.4101C361.414 26.3768 361.414 26.3433 361.41 26.3101H361.51Z" fill="#C5CCE9"/>
<path d="M361.83 28.5904C361.836 29.3344 361.693 30.0722 361.41 30.7604C361.416 30.7935 361.416 30.8273 361.41 30.8604C360.825 32.25 359.72 33.3555 358.33 33.9404H358.23C356.834 34.5005 355.276 34.5005 353.88 33.9404H353.78C352.392 33.3528 351.287 32.2482 350.7 30.8604C350.698 30.8271 350.698 30.7937 350.7 30.7604C350.14 29.3645 350.14 27.8063 350.7 26.4104V26.3104C351.294 24.9267 352.396 23.824 353.78 23.2304H353.88C355.279 22.6706 356.84 22.6706 358.24 23.2304H358.33C359.715 23.8214 360.819 24.9249 361.41 26.3104C361.414 26.3436 361.414 26.3771 361.41 26.4104C361.694 27.1018 361.837 27.843 361.83 28.5904Z" fill="#F5FAFF"/>
<path d="M354.77 73.4502L354.83 73.6002H354.63L354.77 73.4502Z" fill="#C5CCE9"/>
<path d="M354.63 67H354.83L354.77 67.15L354.63 67Z" fill="#C5CCE9"/>
<path d="M359.33 62.2603L359.47 62.4003L359.33 62.4603V62.2603Z" fill="#C5CCE9"/>
<path d="M359.33 78.1001L359.47 78.1501L359.33 78.3001V78.1001Z" fill="#C5CCE9"/>
<path d="M365.83 62.4003L365.97 62.2603V62.4603L365.83 62.4003Z" fill="#C5CCE9"/>
<path d="M365.83 78.1501L365.97 78.1001V78.3001L365.83 78.1501Z" fill="#C5CCE9"/>
<path d="M370.52 73.4502L370.67 73.6002H370.46C370.488 73.554 370.509 73.5033 370.52 73.4502Z" fill="#C5CCE9"/>
<path d="M370.52 67.1002C370.509 67.0471 370.488 66.9964 370.46 66.9502H370.67L370.52 67.1002Z" fill="#C5CCE9"/>
<path d="M354.77 73.4502L354.83 73.6002H354.63L354.77 73.4502Z" fill="#C5CCE9"/>
<path d="M354.63 67H354.83L354.77 67.15L354.63 67Z" fill="#C5CCE9"/>
<path d="M370.52 73.4502L370.67 73.6002H370.46C370.488 73.554 370.509 73.5033 370.52 73.4502Z" fill="#C5CCE9"/>
<path d="M370.52 67.1002C370.509 67.0471 370.488 66.9964 370.46 66.9502H370.67L370.52 67.1002Z" fill="#C5CCE9"/>
<path d="M383.69 73.6005V67.0005H378.37C377.956 65.0641 377.19 63.2201 376.11 61.5605L379.88 57.7905L375.18 53.1005L371.42 56.8605C369.77 55.7668 367.933 54.987 366 54.5605V49.2305H359.36V54.5605C357.42 54.9681 355.573 55.731 353.91 56.8105L350.14 53.0505L345.45 57.7405L349.21 61.5105C348.114 63.182 347.34 65.0441 346.93 67.0005H341.6V73.6005H346.93C347.342 75.5234 348.105 77.354 349.18 79.0005L345.42 82.7705L350.11 87.4705L353.88 83.7005C355.539 84.7972 357.387 85.577 359.33 86.0005V91.3305H366V86.0005C367.94 85.5893 369.788 84.8231 371.45 83.7405L375.21 87.5105L379.91 82.8105L376.11 79.0005C377.194 77.3426 377.96 75.498 378.37 73.5605L383.69 73.6005ZM370.69 73.6005H370.48C369.626 75.6241 368.02 77.2373 366 78.1005V78.3005L365.86 78.1505C363.821 78.9766 361.54 78.9766 359.5 78.1505L359.36 78.3005V78.1005C357.336 77.2363 355.724 75.6242 354.86 73.6005H354.66L354.8 73.4505C353.973 71.4145 353.973 69.1364 354.8 67.1005L354.66 66.9505H354.86C355.721 64.9269 357.335 63.317 359.36 62.4605V62.2605L359.5 62.4005C361.54 61.5743 363.821 61.5743 365.86 62.4005L366 62.2605V62.4605C368.023 63.3329 369.624 64.9625 370.46 67.0005H370.67L370.52 67.1505C371.347 69.1864 371.347 71.4645 370.52 73.5005L370.69 73.6005Z" fill="#C5CCE9"/>
<path d="M354.63 67H354.83L354.77 67.15L354.63 67Z" fill="#C5CCE9"/>
<path d="M359.33 62.2603L359.47 62.4003L359.33 62.4603V62.2603Z" fill="#C5CCE9"/>
<path d="M365.83 78.1501L365.97 78.1001V78.3001L365.83 78.1501Z" fill="#C5CCE9"/>
<path d="M370.67 73.6002H370.46C370.488 73.554 370.509 73.5033 370.52 73.4502L370.67 73.6002Z" fill="#C5CCE9"/>
<path d="M359.33 62.2603L359.47 62.4003L359.33 62.4603V62.2603Z" fill="#C5CCE9"/>
<path d="M359.33 78.1001L359.47 78.1501L359.33 78.3001V78.1001Z" fill="#C5CCE9"/>
<path d="M366 62.2603V62.4603L365.86 62.4003L366 62.2603Z" fill="#C5CCE9"/>
<path d="M365.83 78.1501L365.97 78.1001V78.3001L365.83 78.1501Z" fill="#C5CCE9"/>
<path d="M354.77 73.4502L354.83 73.6002H354.63L354.77 73.4502Z" fill="#C5CCE9"/>
<path d="M359.33 78.1001L359.47 78.1501L359.33 78.3001V78.1001Z" fill="#C5CCE9"/>
<path d="M365.83 62.4003L365.97 62.2603V62.4603L365.83 62.4003Z" fill="#C5CCE9"/>
<path d="M370.67 67L370.52 67.15C370.509 67.0969 370.488 67.0462 370.46 67H370.67Z" fill="#C5CCE9"/>
<path d="M371.14 70.2804C371.146 71.3677 370.935 72.4454 370.52 73.4504C370.509 73.5035 370.489 73.5542 370.46 73.6004C369.611 75.6203 368.012 77.2329 366 78.1004L365.86 78.1504C363.821 78.9765 361.54 78.9765 359.5 78.1504L359.36 78.1004C357.336 77.2362 355.724 75.6241 354.86 73.6004L354.8 73.4504C353.974 71.4144 353.974 69.1363 354.8 67.1004L354.86 66.9504C355.721 64.9268 357.335 63.3169 359.36 62.4604L359.5 62.4004C361.54 61.5742 363.821 61.5742 365.86 62.4004L366 62.4604C368.023 63.3328 369.624 64.9624 370.46 67.0004C370.489 67.0465 370.509 67.0973 370.52 67.1504C370.93 68.143 371.141 69.2065 371.14 70.2804Z" fill="#F5FAFF"/>
<path d="M166.82 154.24H75.3403V281.16" stroke="white" stroke-miterlimit="10" stroke-dasharray="5 5"/>
<path d="M281.87 154.24H373.35V281.16" stroke="white" stroke-miterlimit="10" stroke-dasharray="5 5"/>
<path d="M75.3403 267.44L69.0303 277.94H81.6603L75.3403 267.44Z" fill="white"/>
<path d="M373.35 277.94L379.66 267.44H367.03L373.35 277.94Z" fill="white"/>
<path d="M166.24 185.07H160.62V205.08H145.61V185.07H139.99L153.11 165.06L166.24 185.07Z" fill="#C5CCE9"/>
<path d="M285.8 185.08H291.43V165.06H306.43V185.08H312.06L298.93 205.08L285.8 185.08Z" fill="#C5CCE9"/>
<path d="M98.1754 169.949C110.789 157.335 110.789 136.884 98.1754 124.27C85.5615 111.656 65.1102 111.656 52.4963 124.27C39.8823 136.884 39.8824 157.335 52.4963 169.949C65.1102 182.563 85.5615 182.563 98.1754 169.949Z" fill="#B53D08"/>
<path d="M85.9149 172.128C99.7327 166.292 106.203 150.358 100.366 136.54C94.5288 122.723 78.5955 116.253 64.7777 122.09C50.9599 127.926 44.49 143.86 50.3269 157.678C56.1638 171.495 72.0971 177.965 85.9149 172.128Z" fill="#DD510B"/>
<path d="M75.34 129.12V129.17L75.23 129.12H75.34Z" fill="#F5FAFF"/>
<path d="M60.7103 147.12C60.7209 149.87 61.5036 152.562 62.9692 154.888C64.4349 157.215 66.5246 159.083 69.0003 160.28C69.3682 160.458 69.6573 160.766 69.8123 161.145C69.9673 161.523 69.9773 161.945 69.8403 162.33V162.42C69.7619 162.633 69.6403 162.827 69.4831 162.99C69.3259 163.154 69.1365 163.283 68.927 163.369C68.7174 163.455 68.4922 163.498 68.2656 163.493C68.039 163.488 67.8159 163.436 67.6103 163.34C64.3972 161.794 61.7158 159.328 59.9062 156.256C58.0966 153.183 57.2403 149.642 57.446 146.082C57.6517 142.523 58.9101 139.104 61.0615 136.26C63.2129 133.417 66.1605 131.276 69.5303 130.11L68.6803 126.18L75.3003 129.12H75.4103L77.7003 130.12L71.1503 137.53L70.2503 133.36C67.4448 134.404 65.0265 136.283 63.3208 138.743C61.6152 141.203 60.7042 144.127 60.7103 147.12Z" fill="#F5FAFF"/>
<path d="M79.27 164.67L79.48 168.67L71.21 163.27L78.86 157L79.09 161.26C82.0217 160.485 84.6399 158.817 86.5825 156.488C88.525 154.159 89.6959 151.285 89.9331 148.261C90.1703 145.238 89.4621 142.216 87.9065 139.612C86.351 137.009 84.0248 134.954 81.25 133.73C80.8773 133.569 80.5774 133.275 80.4077 132.906C80.2379 132.537 80.2102 132.118 80.33 131.73C80.4431 131.384 80.6623 131.081 80.9566 130.866C81.2509 130.651 81.6053 130.533 81.97 130.53C82.1939 130.532 82.415 130.58 82.62 130.67C86.0742 132.208 88.9563 134.795 90.8575 138.063C92.7587 141.332 93.5823 145.116 93.2116 148.879C92.8408 152.642 91.2945 156.192 88.792 159.027C86.2895 161.861 82.9579 163.836 79.27 164.67Z" fill="#F5FAFF"/>
<path d="M404.811 154.44C408.855 137.065 398.047 119.703 380.673 115.66C363.298 111.617 345.936 122.424 341.893 139.798C337.849 157.173 348.657 174.535 366.031 178.579C383.406 182.622 400.768 171.815 404.811 154.44Z" fill="#1D964E"/>
<path d="M399.815 153.288C403.222 138.68 394.142 124.076 379.534 120.668C364.927 117.261 350.322 126.341 346.915 140.948C343.507 155.556 352.587 170.161 367.195 173.568C381.803 176.976 396.407 167.896 399.815 153.288Z" fill="#3DDB86"/>
<path d="M357.18 140.21L371.56 147.29L392.65 130.97L371.12 158.68L357.18 140.21Z" fill="#F5FAFF"/>
<path d="M77.1499 360.93C70.7165 360.93 66.0199 359.384 63.0599 356.29C60.3256 353.67 58.737 350.076 58.6399 346.29C58.6039 345.137 58.873 343.996 59.4199 342.98C59.9227 342.099 60.651 341.367 61.5299 340.86C62.5521 340.352 63.6782 340.087 64.8199 340.087C65.9615 340.087 67.0876 340.352 68.1099 340.86C68.9903 341.362 69.7165 342.095 70.2099 342.98C70.7678 343.992 71.0441 345.135 71.0099 346.29C71.0688 347.669 70.6716 349.029 69.8799 350.16C69.2337 351.102 68.2954 351.805 67.2099 352.16C68.2632 353.508 69.757 354.443 71.4299 354.8C73.3061 355.34 75.2476 355.619 77.1999 355.63C79.7793 355.649 82.305 354.893 84.4499 353.46C86.6854 351.877 88.3455 349.61 89.1799 347C90.2574 343.916 90.7821 340.667 90.7299 337.4C90.8258 333.988 90.2517 330.591 89.0399 327.4C88.1402 324.853 86.4248 322.673 84.1599 321.2C82.0617 319.887 79.6351 319.194 77.1599 319.2C74.9881 319.389 72.8948 320.103 71.0599 321.28L66.5399 323.54V321.28L86.8199 294H58.6399V322.3C58.5575 324.343 59.0981 326.362 60.1899 328.09C60.7142 328.846 61.4258 329.452 62.2549 329.85C63.0841 330.248 64.0024 330.424 64.9199 330.36C66.6171 330.33 68.259 329.751 69.5999 328.71C71.1227 327.607 72.448 326.255 73.5199 324.71C73.5985 324.428 73.767 324.178 73.9999 324C74.1902 323.84 74.4309 323.751 74.6799 323.75C75.1681 323.792 75.6304 323.988 75.9999 324.31C76.4708 324.834 76.7278 325.516 76.7199 326.22C76.6674 326.695 76.5839 327.166 76.4699 327.63C75.468 330.055 73.7873 332.138 71.6299 333.63C69.6288 334.984 67.2657 335.702 64.8499 335.69C58.7499 335.69 54.5265 334.49 52.1799 332.09C50.968 330.761 50.0341 329.204 49.4331 327.509C48.832 325.814 48.5759 324.016 48.6799 322.22V294H34.3799V288.75H48.7799V276.75L45.4799 273.45V270.76H55.0499L58.6399 272.62V288.74L95.8599 288.62L99.5699 292.34L76.7399 315.29C78.1213 314.732 79.5765 314.379 81.0599 314.24C83.9871 314.374 86.8428 315.189 89.3999 316.62C92.3524 318.019 94.8435 320.233 96.5799 323C98.1318 325.353 99.2306 327.974 99.8199 330.73C100.308 332.904 100.57 335.123 100.6 337.35C100.613 341.602 99.6482 345.801 97.7799 349.62C96.0095 353.321 93.0283 356.305 89.3299 358.08C85.5443 359.958 81.3755 360.933 77.1499 360.93Z" fill="#4F7CF2"/>
<path d="M374.72 283C373.66 282.92 372.6 282.88 371.55 282.88C361.256 282.906 351.383 286.966 344.05 294.19C336.716 301.413 332.506 311.223 332.325 321.515C332.143 331.807 336.003 341.761 343.077 349.238C350.151 356.716 359.874 361.123 370.161 361.512C380.447 361.901 390.476 358.243 398.095 351.321C405.714 344.399 410.315 334.767 410.912 324.49C411.509 314.214 408.053 304.113 401.287 296.356C394.52 288.599 384.982 283.804 374.72 283Z" fill="#FCCC54"/>
<path d="M374.81 281.91C366.843 281.277 358.866 283.02 351.89 286.92C344.913 290.82 339.25 296.701 335.615 303.82C331.981 310.938 330.54 318.975 331.473 326.913C332.407 334.85 335.673 342.333 340.859 348.415C346.046 354.496 352.919 358.903 360.61 361.078C368.301 363.253 376.464 363.099 384.067 360.634C391.67 358.17 398.372 353.506 403.324 347.232C408.277 340.959 411.258 333.358 411.89 325.39C412.738 314.708 409.308 304.126 402.354 295.972C395.4 287.818 385.493 282.76 374.81 281.91ZM410.81 325.31C410.204 332.935 407.389 340.218 402.71 346.269C398.03 352.32 391.689 356.876 384.462 359.381C377.235 361.885 369.434 362.23 362.014 360.372C354.594 358.514 347.876 354.534 342.682 348.92C337.487 343.305 334.042 336.298 332.766 328.756C331.49 321.215 332.439 313.464 335.497 306.453C338.555 299.442 343.59 293.474 349.986 289.279C356.381 285.084 363.861 282.843 371.51 282.83C372.56 282.83 373.62 282.83 374.68 282.95C385.091 283.777 394.749 288.703 401.531 296.646C408.313 304.588 411.665 314.898 410.85 325.31H410.81Z" fill="url(#paint0_linear_49_2)"/>
<path d="M374.8 281.91C364.202 281.218 353.758 284.727 345.727 291.676C337.696 298.625 332.723 308.457 331.885 319.044C331.046 329.631 334.409 340.123 341.247 348.25C348.084 356.377 357.846 361.485 368.42 362.47C369.51 362.56 370.59 362.6 371.68 362.6C382.107 362.57 392.119 358.511 399.622 351.271C407.126 344.031 411.54 334.171 411.943 323.752C412.346 313.332 408.706 303.161 401.784 295.363C394.862 287.565 385.194 282.745 374.8 281.91ZM409.86 325.23C409.269 332.663 406.525 339.763 401.964 345.662C397.402 351.561 391.221 356.003 384.175 358.445C377.13 360.886 369.525 361.222 362.292 359.411C355.058 357.6 348.509 353.721 343.445 348.247C338.381 342.773 335.022 335.943 333.778 328.591C332.535 321.238 333.46 313.683 336.441 306.848C339.423 300.013 344.331 294.196 350.566 290.106C356.802 286.016 364.093 283.832 371.55 283.82C372.55 283.82 373.61 283.82 374.65 283.94C384.79 284.759 394.19 289.566 400.791 297.306C407.392 305.046 410.653 315.089 409.86 325.23Z" fill="#DDA526"/>
<path opacity="0.3" d="M403.8 334.203C410.418 316.435 401.38 296.667 383.613 290.049C365.846 283.431 346.077 292.469 339.459 310.236C332.841 328.003 341.879 347.772 359.646 354.39C377.414 361.008 397.182 351.97 403.8 334.203Z" fill="#BC700C"/>
<g style="mix-blend-mode:multiply">
<g style="mix-blend-mode:multiply" opacity="0.4">
<path d="M369.25 305.79V300H374.39V305.61C379.49 305.92 384.39 307.52 387.21 309.73L384.38 316C381.421 313.932 377.975 312.671 374.38 312.34V321C380.09 322.39 386.48 324.29 386.48 331.65C386.48 337.11 382.48 341.79 374.38 342.72V348.43H369.24V342.82C365.557 342.616 361.976 341.54 358.79 339.68L361.36 333.35C363.783 334.756 366.462 335.667 369.24 336.03V327.28C363.52 325.94 357.24 324.04 357.24 316.78C357.25 311.4 361.17 306.76 369.25 305.79ZM374.39 328.53V335.84C377.12 335.23 378.2 333.73 378.2 332.03C378.2 330.33 376.66 329.26 374.39 328.53ZM365.54 316.13C365.54 317.93 367.03 318.91 369.25 319.68V312.58C366.67 313.15 365.54 314.48 365.54 316.13Z" fill="#493107"/>
</g>
<path d="M368.54 304.84V299.08H373.69V304.69C378.78 305 383.69 306.59 386.5 308.81L383.67 315.09C380.712 313.021 377.265 311.759 373.67 311.43V320C379.38 321.39 385.76 323.29 385.76 330.65C385.76 336.11 381.76 340.79 373.67 341.72V347.43H368.52V341.82C364.837 341.615 361.256 340.538 358.07 338.68L360.65 332.35C363.07 333.757 365.745 334.668 368.52 335.03V326.28C362.81 324.94 356.52 323.03 356.52 315.78C356.55 310.45 360.46 305.82 368.54 304.84ZM373.69 327.59V334.9C376.41 334.28 377.49 332.79 377.49 331.09C377.49 329.39 376 328.31 373.69 327.59ZM364.83 315.19C364.83 316.99 366.33 317.97 368.54 318.74V311.64C366 312.2 364.83 313.54 364.83 315.19Z" fill="#D29E26"/>
</g>
<mask id="mask0_49_2" style="mask-type:luminance" maskUnits="userSpaceOnUse" x="337" y="287" width="69" height="70">
<path d="M403.8 334.203C410.418 316.435 401.38 296.667 383.613 290.049C365.846 283.431 346.077 292.469 339.459 310.236C332.841 328.003 341.879 347.772 359.646 354.39C377.414 361.008 397.182 351.97 403.8 334.203Z" fill="white"/>
</mask>
<g mask="url(#mask0_49_2)">
<g opacity="0.2">
<path d="M415.007 294.781L409.257 288.04L329.093 356.41L334.843 363.151L415.007 294.781Z" fill="#FFE6B3"/>
<path d="M403.248 287.964L392.937 275.874L312.772 344.243L323.084 356.334L403.248 287.964Z" fill="#FFE6B3"/>
<path d="M420.495 302.451L417.621 299.081L337.456 367.45L340.331 370.821L420.495 302.451Z" fill="#FFE6B3"/>
</g>
</g>
<path opacity="0.3" d="M338.49 320.57C338.997 314.125 341.315 307.954 345.177 302.769C349.039 297.585 354.287 293.597 360.318 291.266C366.348 288.935 372.914 288.356 379.259 289.595C385.604 290.834 391.47 293.841 396.18 298.27C392.99 295.005 389.181 292.41 384.975 290.636C380.77 288.862 376.252 287.946 371.688 287.94C367.124 287.935 362.604 288.84 358.394 290.604C354.184 292.367 350.369 294.953 347.171 298.21C343.973 301.467 341.458 305.33 339.772 309.571C338.086 313.813 337.263 318.348 337.353 322.912C337.442 327.475 338.441 331.975 340.292 336.147C342.143 340.32 344.807 344.081 348.13 347.21C344.713 343.716 342.085 339.53 340.422 334.935C338.759 330.34 338.1 325.441 338.49 320.57Z" fill="#BC700C"/>
</g>
<defs>
<linearGradient id="paint0_linear_49_2" x1="332.107" y1="320.317" x2="412.917" y2="326.782" gradientUnits="userSpaceOnUse">
<stop stop-color="#FCCC54"/>
<stop offset="1" stop-color="#FE9C03"/>
</linearGradient>
<clipPath id="clip0_49_2">
<rect width="443.91" height="394.87" fill="white"/>
</clipPath>
</defs>
</svg>
