<svg width="314" height="612" viewBox="0 0 314 612" fill="none" xmlns="http://www.w3.org/2000/svg">
<g filter="url(#filter0_f_1752_261)">
<ellipse cx="178.862" cy="32.1519" rx="230.446" ry="210.202" transform="rotate(-118.859 178.862 32.1519)" fill="#8F00FF"/>
</g>
<g filter="url(#filter1_f_1752_261)">
<ellipse cx="335.101" cy="225.752" rx="230.446" ry="210.202" transform="rotate(-118.859 335.101 225.752)" fill="#2051FE" fill-opacity="0.8"/>
</g>
<g filter="url(#filter2_f_1752_261)">
<ellipse cx="333.58" cy="379.333" rx="219.929" ry="142.35" transform="rotate(-108.318 333.58 379.333)" fill="#244FEA" fill-opacity="0.8"/>
</g>
<g filter="url(#filter3_f_1752_261)">
<path d="M275.324 112.059C357.679 282.126 230.003 418.844 266.11 473.876C311.499 543.055 450.147 449.095 473.404 359.636C500.816 254.189 219.514 -3.19234 275.324 112.059Z" fill="#1248FF" fill-opacity="0.75"/>
</g>
<g filter="url(#filter4_f_1752_261)">
<path d="M343.991 442.732C374.083 497.336 423.703 503.453 471.541 477.09C571.361 422.079 341.222 -79.4806 217.753 -106.596C127.014 -126.523 44.6597 -72.1705 45.2322 1.23042C45.8792 84.1802 36.6871 85.2792 98.6106 133C150.278 172.818 219.145 212.061 270.094 259.026C317.783 302.986 317.261 394.23 343.991 442.732Z" fill="#121212"/>
</g>
<defs>
<filter id="filter0_f_1752_261" x="-137.479" y="-295.01" width="632.682" height="654.324" filterUnits="userSpaceOnUse" color-interpolation-filters="sRGB">
<feFlood flood-opacity="0" result="BackgroundImageFix"/>
<feBlend mode="normal" in="SourceGraphic" in2="BackgroundImageFix" result="shape"/>
<feGaussianBlur stdDeviation="50.6104" result="effect1_foregroundBlur_1752_261"/>
</filter>
<filter id="filter1_f_1752_261" x="18.7607" y="-101.41" width="632.682" height="654.324" filterUnits="userSpaceOnUse" color-interpolation-filters="sRGB">
<feFlood flood-opacity="0" result="BackgroundImageFix"/>
<feBlend mode="normal" in="SourceGraphic" in2="BackgroundImageFix" result="shape"/>
<feGaussianBlur stdDeviation="50.6104" result="effect1_foregroundBlur_1752_261"/>
</filter>
<filter id="filter2_f_1752_261" x="40.0497" y="24.0561" width="587.06" height="710.554" filterUnits="userSpaceOnUse" color-interpolation-filters="sRGB">
<feFlood flood-opacity="0" result="BackgroundImageFix"/>
<feBlend mode="normal" in="SourceGraphic" in2="BackgroundImageFix" result="shape"/>
<feGaussianBlur stdDeviation="70.8545" result="effect1_foregroundBlur_1752_261"/>
</filter>
<filter id="filter3_f_1752_261" x="151.542" y="-24.9947" width="431.717" height="630.777" filterUnits="userSpaceOnUse" color-interpolation-filters="sRGB">
<feFlood flood-opacity="0" result="BackgroundImageFix"/>
<feBlend mode="normal" in="SourceGraphic" in2="BackgroundImageFix" result="shape"/>
<feGaussianBlur stdDeviation="53.9844" result="effect1_foregroundBlur_1752_261"/>
</filter>
<filter id="filter4_f_1752_261" x="-62.8816" y="-218.719" width="666.838" height="818.891" filterUnits="userSpaceOnUse" color-interpolation-filters="sRGB">
<feFlood flood-opacity="0" result="BackgroundImageFix"/>
<feBlend mode="normal" in="SourceGraphic" in2="BackgroundImageFix" result="shape"/>
<feGaussianBlur stdDeviation="53.9844" result="effect1_foregroundBlur_1752_261"/>
</filter>
</defs>
</svg>
